<svg width="117" height="69" viewBox="0 0 117 69" fill="none" xmlns="http://www.w3.org/2000/svg">
<g opacity="0.75" clip-path="url(#clip0_1205_183)">
<path d="M105.62 5C105.706 5 105.793 5 105.884 5C106.095 7.60932 105.099 9.559 103.888 10.9709C102.701 12.373 101.074 13.7329 98.4439 13.5266C98.2685 10.9546 99.266 9.14956 100.475 7.74092C101.596 6.42814 103.651 5.25996 105.62 5Z" fill="#D56E3B"/>
<path d="M113.583 32.159C113.583 32.185 113.583 32.2078 113.583 32.2322C112.844 34.471 111.789 36.3898 110.503 38.1705C109.328 39.7872 107.889 41.9627 105.318 41.9627C103.097 41.9627 101.622 40.5345 99.3457 40.4955C96.9378 40.4565 95.6137 41.6897 93.4121 42C93.1603 42 92.9085 42 92.6615 42C91.0449 41.7661 89.7403 40.4858 88.7898 39.3322C85.9871 35.9235 83.8214 31.5205 83.4184 25.886C83.4184 25.3335 83.4184 24.7828 83.4184 24.2304C83.589 20.1978 85.5484 16.9191 88.1529 15.3301C89.5274 14.4852 91.417 13.7655 93.521 14.0872C94.4227 14.2269 95.344 14.5356 96.1514 14.841C96.9167 15.1351 97.8737 15.6566 98.7803 15.629C99.3944 15.6112 100.005 15.2911 100.624 15.0652C102.438 14.4105 104.215 13.6599 106.558 14.0124C109.374 14.4381 111.372 15.6891 112.607 17.6193C110.225 19.1352 108.342 21.4196 108.663 25.3205C108.949 28.8641 111.01 30.9372 113.583 32.159Z" fill="#D56E3B"/>
</g>
<g opacity="0.75">
<path d="M88.8742 53.8695V62.132H90.8195V53.8695H88.8742ZM97.2828 52.4125C99.2774 52.4125 100.559 54.0062 100.559 56.5C100.559 59.0133 99.2774 60.607 97.2828 60.607C95.2688 60.607 93.9969 59.0133 93.9969 56.5C93.9969 54.0062 95.268 52.4125 97.2828 52.4125ZM107.883 50.7015C105.438 50.7015 103.698 52.0508 103.698 54.0554C103.698 55.6492 104.685 56.6469 106.759 57.1258L108.216 57.4781C109.634 57.8008 110.21 58.2703 110.21 59.082C110.21 60.0211 109.262 60.6859 107.913 60.6859C106.534 60.6859 105.497 60.0109 105.39 58.975H103.434C103.513 61.0484 105.214 62.3195 107.795 62.3195C110.523 62.3195 112.235 60.9797 112.235 58.8484C112.235 57.1765 111.257 56.2281 108.989 55.7094L107.688 55.4156C106.309 55.0828 105.742 54.6429 105.742 53.9C105.742 52.9609 106.602 52.3351 107.874 52.3351C109.155 52.3351 110.035 52.9711 110.133 54.0172H112.049C112 52.0422 110.367 50.7023 107.884 50.7023L107.883 50.7015ZM97.2828 50.7015C93.9977 50.7015 91.9438 52.9406 91.9438 56.5C91.9438 60.089 93.9969 62.3179 97.2828 62.3179C100.549 62.3179 102.612 60.0883 102.612 56.5C102.612 52.9406 100.548 50.7015 97.282 50.7015H97.2828ZM89.8414 50.682C89.8359 50.682 89.8289 50.682 89.8227 50.682C89.2391 50.682 88.7664 51.1547 88.7664 51.7383C88.7664 52.3219 89.2391 52.7945 89.8227 52.7945C89.8297 52.7945 89.8359 52.7945 89.843 52.7945C89.8516 52.7945 89.8609 52.7953 89.8711 52.7953C90.4547 52.7953 90.9274 52.3226 90.9274 51.739C90.9274 51.1554 90.4547 50.6828 89.8711 50.6828C89.8609 50.6828 89.8508 50.6828 89.8406 50.6836H89.8422L89.8414 50.682Z" fill="#D56E3B"/>
</g>
<g opacity="0.75">
<path d="M40.6734 20.9566L44.8074 13.7966C44.8803 13.674 44.9234 13.525 44.9234 13.366C44.9234 12.8906 44.5391 12.5064 44.0638 12.5064C43.7474 12.5064 43.4708 12.677 43.3218 12.932L43.3201 12.9353L39.1348 20.1847C36.0094 18.7488 32.3541 17.9107 28.5033 17.9107C24.6525 17.9107 20.9972 18.7488 17.7095 20.251L17.8718 20.1847L13.6865 12.9337C13.5358 12.6753 13.2575 12.5031 12.9412 12.5031C12.4658 12.5031 12.0816 12.8873 12.0816 13.3626C12.0816 13.5216 12.1247 13.6691 12.1992 13.7966L12.1975 13.7933L16.3315 20.9532C9.23285 24.8736 4.34691 32.0451 3.67282 40.4042L3.66785 40.4904H53.3404C52.6614 32.0451 47.7754 24.8736 40.8026 21.0162L40.6768 20.9532L40.6734 20.9566ZM17.0686 33.4165C15.9258 33.4165 14.9999 32.4907 14.9999 31.3479C14.9999 30.2051 15.9258 29.2792 17.0686 29.2792C18.2114 29.2792 19.1372 30.2051 19.1372 31.3479C19.1356 32.489 18.2114 33.4149 17.0686 33.4165ZM39.9314 33.4165C38.7886 33.4165 37.8628 32.4907 37.8628 31.3479C37.8628 30.2051 38.7886 29.2792 39.9314 29.2792C41.0743 29.2792 42.0001 30.2051 42.0001 31.3479C41.9984 32.489 41.0743 33.4149 39.9314 33.4165Z" fill="#D56E3B"/>
</g>
<g opacity="0.75" clip-path="url(#clip1_1205_183)">
<path d="M26.9171 53.2622V48.1254H28.778V60.767C27.2661 60.9763 27.004 60.8648 26.8755 59.8825C25.962 60.7107 24.9313 61.1229 23.7255 60.9662C23.1606 60.9064 22.6155 60.7249 22.1281 60.4346C21.6408 60.1442 21.2228 59.7519 20.9031 59.2849C19.6331 57.4769 19.8498 54.8095 21.3832 53.2973C22.8939 51.8039 24.8683 51.765 26.9171 53.2622ZM27.067 56.5824C27.067 55.0451 25.9897 53.8887 24.547 53.8862C23.1043 53.8837 22.0182 55.0138 22.0145 56.5623C22.0145 58.0821 23.1144 59.2736 24.5344 59.2786C25.9544 59.2836 27.0645 58.0921 27.067 56.5836V56.5824Z" fill="#D56E3B"/>
<path d="M57.1378 53.2472V48.1254H59V60.7169C57.7766 61.0727 57.236 60.8547 57.076 59.8812C56.0617 60.8385 54.8874 61.188 53.5481 60.8998C52.636 60.7115 51.8222 60.2037 51.2549 59.469C49.8853 57.7313 49.9886 54.9975 51.4792 53.4213C53.0012 51.8126 54.9542 51.7287 57.1378 53.2472ZM57.289 56.5623C57.2789 55.025 56.1827 53.8774 54.735 53.8887C53.2872 53.8999 52.249 55.0238 52.2389 56.5511C52.2289 58.1059 53.3603 59.3074 54.8206 59.2799C56.1953 59.2586 57.299 58.0445 57.289 56.5623Z" fill="#D56E3B"/>
<path d="M8.73548 60.7482C7.33438 61.0101 7.0282 60.8835 6.7636 59.9514C4.64305 61.416 2.5099 61.2807 1.06344 59.5868C-0.427123 57.8428 -0.338924 54.9862 1.26 53.3524C2.77198 51.8038 4.87615 51.7425 6.80392 53.2497C6.84046 52.9352 6.87196 52.6671 6.90598 52.3727H8.73548V60.7482ZM4.45531 53.8887C2.99499 53.8949 1.97189 55.0163 1.97189 56.5949C1.97189 58.1309 3.05799 59.2899 4.49185 59.2836C5.8854 59.2761 7.01938 58.052 7.01182 56.5586C7.00426 55.0651 5.88666 53.8786 4.45531 53.8887Z" fill="#D56E3B"/>
<path d="M36.4286 56.5197C36.4463 54.0139 38.3854 52.1346 40.9381 52.1346C41.5262 52.1311 42.1091 52.2438 42.6531 52.4662C43.197 52.6885 43.6911 53.0161 44.1066 53.4299C44.5222 53.8437 44.8509 54.3355 45.0738 54.8766C45.2966 55.4178 45.4091 55.9976 45.4048 56.5824C45.3871 59.0881 43.3825 61.0239 40.8361 60.9925C38.2896 60.9612 36.4135 59.0606 36.4286 56.5197ZM43.4379 56.5874C43.4493 55.0676 42.343 53.9012 40.894 53.9062C39.4451 53.9112 38.3741 55.0338 38.3489 56.5247C38.3237 58.0157 39.4312 59.2347 40.8562 59.2523C42.2813 59.2698 43.4279 58.0921 43.4379 56.5886V56.5874Z" fill="#D56E3B"/>
<path d="M10.8724 52.3225H11.8287C12.7195 52.3225 12.7195 52.3225 12.8707 53.2083C13.7464 52.2749 14.8237 51.9855 16.0207 52.1935C17.4067 52.4328 18.5079 53.5629 18.5697 54.9912C18.6516 56.9006 18.5898 58.8162 18.5898 60.8259C18.1942 60.8259 17.8263 60.8259 17.4558 60.8259C16.9317 60.8334 16.6998 60.5916 16.6998 60.0629C16.7124 58.7511 16.6998 57.4318 16.6998 56.1263C16.6998 54.7281 16.0698 53.9099 14.9737 53.8886C13.8006 53.8648 12.8317 54.8057 12.7989 56.0975C12.7573 57.4919 12.7838 58.8889 12.7813 60.2846V60.8033C12.2647 60.8033 11.7922 60.8321 11.3247 60.7946C10.8573 60.757 10.8636 60.3886 10.8636 60.0428V53.5441L10.8724 52.3225Z" fill="#D56E3B"/>
<path d="M32.8428 60.7958C30.6013 60.9111 30.9528 60.782 30.9427 59.1821C30.9301 56.9344 30.9427 54.6867 30.9427 52.3814H32.8226V53.4038C33.6151 52.4315 34.579 52.0782 35.8075 52.3175V54.1718C35.6664 54.163 35.5303 54.1592 35.3942 54.1455C34.0334 54.0202 33.0985 54.6704 32.9272 56.0323C32.8012 56.997 32.8617 57.9843 32.8465 58.9628C32.8352 59.5617 32.8428 60.1618 32.8428 60.7958Z" fill="#D56E3B"/>
<path d="M48.7614 60.7583C48.6989 60.7849 48.6333 60.8039 48.5661 60.8146C46.6371 60.8823 46.9092 60.8021 46.9054 59.3037C46.8991 57.0171 46.9054 54.7306 46.9054 52.3827H48.7614V60.7583Z" fill="#D56E3B"/>
<path d="M49.0789 49.2529C49.076 49.5785 48.9458 49.8902 48.7158 50.122C48.4858 50.3538 48.174 50.4874 47.8466 50.4945C47.5087 50.4903 47.1857 50.355 46.9466 50.1175C46.7075 49.8799 46.5711 49.5589 46.5665 49.2228C46.5704 49.0563 46.6076 48.8923 46.676 48.7402C46.7444 48.5882 46.8426 48.4512 46.9648 48.3374C47.087 48.2235 47.2309 48.135 47.3879 48.0771C47.545 48.0192 47.7121 47.993 47.8794 48C48.0419 48.0007 48.2026 48.034 48.3518 48.098C48.501 48.162 48.6356 48.2553 48.7477 48.3723C48.8597 48.4893 48.9468 48.6276 49.0037 48.779C49.0606 48.9303 49.0862 49.0915 49.0789 49.2529Z" fill="#D56E3B"/>
</g>
<defs>
<clipPath id="clip0_1205_183">
<rect width="37" height="37" fill="white" transform="translate(80 5)"/>
</clipPath>
<clipPath id="clip1_1205_183">
<rect width="59" height="13" fill="white" transform="translate(0 48)"/>
</clipPath>
</defs>
</svg>
