<svg width="452" height="67" viewBox="0 0 452 67" fill="none" xmlns="http://www.w3.org/2000/svg">
<path d="M81.7797 16.2243L67.4039 65.9688H49.4092L41.0318 33.6957L32.3704 65.9688H14.4717L0 16.2243H16.2791L23.7926 51.7924L32.7419 16.2243H49.9727L59.0181 51.6165L66.4397 16.2243H81.7797Z" fill="#190B28"/>
<path d="M87.8238 27.5476C89.8858 23.6833 92.695 20.7115 96.2514 18.6321C99.8173 16.5458 103.947 15.4607 108.152 15.5052C111.897 15.5052 115.181 16.2179 118.003 17.6432C120.674 18.9352 122.926 20.8749 124.523 23.2599V16.2244H140.802V65.9689H124.523V58.9335C122.871 61.3082 120.592 63.2429 117.907 64.5501C115.085 65.9781 111.801 66.6907 108.056 66.6881C103.877 66.7252 99.7759 65.6254 96.2514 63.5222C92.695 61.4167 89.8858 58.4202 87.8238 54.5324C85.7618 50.6447 84.7308 46.1433 84.7308 41.0283C84.7308 35.9028 85.7618 31.4093 87.8238 27.5476ZM121.146 32.0933C120.081 31.0547 118.805 30.2276 117.391 29.6613C115.978 29.0949 114.457 28.801 112.92 28.797C111.383 28.793 109.861 29.079 108.444 29.6379C107.027 30.1969 105.745 31.0173 104.675 32.0503C102.421 34.2234 101.294 37.2109 101.294 41.0126C101.294 44.8144 102.421 47.8305 104.675 50.061C105.731 51.1125 107.005 51.9511 108.42 52.5257C109.834 53.1003 111.359 53.3987 112.9 53.4027C114.442 53.4068 115.969 53.1163 117.386 52.5491C118.804 51.9819 120.083 51.1499 121.146 50.104C123.397 47.9074 124.523 44.9108 124.523 41.1143C124.523 37.3177 123.397 34.3107 121.146 32.0933Z" fill="#190B28"/>
<path d="M176.028 18.0538C178.915 16.4769 182.206 15.6662 185.549 15.7086V31.8237H181.074C177.011 31.8237 173.964 32.6419 171.933 34.2783C169.901 35.9147 168.887 38.781 168.89 42.8772V49.6078H152.611V16.2245H168.89V24.5147C170.698 21.8688 173.142 19.6561 176.028 18.0538Z" fill="#190B28"/>
<path d="M202.587 64.4525C198.97 62.9673 196.113 60.9322 194.018 58.3473C191.953 55.8333 190.729 52.8033 190.499 49.639H206.586C206.668 50.4694 206.94 51.2736 207.384 51.9967C207.827 52.7197 208.433 53.3447 209.158 53.829C210.789 54.931 212.765 55.4947 214.776 55.4315C216.805 55.4315 218.374 55.0641 219.489 54.3176C220.005 54.0053 220.428 53.5761 220.72 53.0699C221.012 52.5636 221.163 51.9966 221.158 51.4213C221.158 49.9947 220.361 48.9394 218.779 48.2554C217.197 47.5714 214.605 46.817 211.065 45.9845C207.83 45.3233 204.648 44.4549 201.54 43.3853C198.997 42.4622 196.741 40.9603 194.974 39.0155C193.129 37.0247 192.208 34.3356 192.211 30.9481C192.183 28.1624 193.064 25.4351 194.736 23.131C196.406 20.7858 198.881 18.928 202.162 17.5573C205.443 16.1867 209.33 15.504 213.824 15.5092C220.486 15.5092 225.737 17.0544 229.577 20.1448C233.418 23.2352 235.623 27.334 236.193 32.4412H221.167C221.072 31.6412 220.808 30.8668 220.391 30.163C219.974 29.4591 219.412 28.8399 218.737 28.3411C217.371 27.3275 215.577 26.822 213.357 26.8246C211.453 26.8246 209.994 27.1659 208.978 27.8486C208.493 28.1596 208.098 28.58 207.832 29.0712C207.566 29.5623 207.436 30.1084 207.455 30.6589C207.455 32.0868 208.264 33.1565 209.884 33.8679C211.503 34.5792 214.026 35.2919 217.452 36.0059C220.709 36.7601 223.916 37.6986 227.052 38.8161C229.583 39.7775 231.823 41.3078 233.572 43.2719C235.442 45.3252 236.416 48.0743 236.494 51.519C236.537 54.3204 235.618 57.0606 233.873 59.3362C232.128 61.624 229.623 63.4207 226.359 64.7261C223.095 66.0316 219.302 66.683 214.98 66.6804C210.336 66.6804 206.205 65.9378 202.587 64.4525Z" fill="#190B28"/>
<path d="M293.792 21.3487C297.474 25.1244 299.315 30.3098 299.315 36.9048V65.9691H283.127V38.9568C283.127 35.6319 282.208 33.0471 280.368 31.2022C278.529 29.3574 276.054 28.4362 272.942 28.4388C269.831 28.4388 267.356 29.36 265.517 31.2022C263.677 33.0445 262.758 35.6293 262.758 38.9568V65.9691H246.478V0H262.758V22.9121C264.492 20.6458 266.819 18.8344 269.516 17.6512C272.513 16.3188 275.798 15.6501 279.116 15.6969C285.219 15.6917 290.111 17.5756 293.792 21.3487Z" fill="#190B28"/>
<path d="M310.501 27.5479C312.561 23.6836 315.368 20.7118 318.925 18.6324C322.491 16.5466 326.621 15.4614 330.825 15.5056C334.568 15.5056 337.853 16.2182 340.68 17.6436C343.35 18.9377 345.601 20.877 347.2 23.2602V16.2247H363.479V65.9693H347.2V58.9338C345.547 61.3076 343.269 63.2421 340.584 64.5505C337.76 65.9784 334.475 66.6911 330.729 66.6885C326.55 66.7255 322.449 65.6257 318.925 63.5225C315.368 61.4171 312.561 58.4205 310.501 54.5328C308.442 50.645 307.41 46.1437 307.404 41.0286C307.404 35.9032 308.437 31.4096 310.501 27.5479ZM343.819 32.0936C342.756 31.0544 341.48 30.2266 340.067 29.6597C338.654 29.0928 337.134 28.7983 335.596 28.7939C334.059 28.7896 332.537 29.0754 331.121 29.6342C329.704 30.1931 328.423 31.0136 327.352 32.0467C325.098 34.2199 323.971 37.2073 323.971 41.0091C323.971 44.8108 325.098 47.827 327.352 50.0574C328.408 51.1088 329.682 51.9474 331.096 52.5219C332.51 53.0965 334.035 53.3949 335.576 53.3989C337.117 53.4029 338.643 53.1125 340.061 52.5453C341.478 51.9782 342.757 51.1463 343.819 50.1004C346.073 47.9038 347.2 44.9072 347.2 41.1107C347.2 37.3142 346.073 34.3085 343.819 32.0936Z" fill="#190B28"/>
<path d="M169.078 56.1937H152.607V66.6844H169.078V56.1937Z" fill="#190B28"/>
<g clip-path="url(#clip0_1276_205)">
<path d="M435.232 19.4892C435.621 19.853 435.815 20.3677 435.814 21.0333C435.813 21.6988 435.62 22.2135 435.232 22.5773C434.845 22.9417 434.255 23.1239 433.464 23.1239H431.209V18.9461H433.464C434.255 18.942 434.844 19.123 435.232 19.4892Z" fill="#D56E3B"/>
<path d="M420.111 19.4892C419.723 19.1248 419.133 18.9426 418.342 18.9426H416.088V23.1205H418.342C419.134 23.1205 419.723 22.9383 420.111 22.5739C420.499 22.2095 420.693 21.6948 420.693 21.0298C420.693 20.3654 420.499 19.8519 420.111 19.4892ZM420.111 19.4892C419.723 19.1248 419.133 18.9426 418.342 18.9426H416.088V23.1205H418.342C419.134 23.1205 419.723 22.9383 420.111 22.5739C420.499 22.2095 420.693 21.6948 420.693 21.0298C420.693 20.3654 420.499 19.8519 420.111 19.4892ZM446.242 8H386.754C385.228 8.00092 383.764 8.59602 382.685 9.65447C381.606 10.7129 381 12.1481 381 13.6445V34.3599C381 35.8569 381.607 37.2926 382.686 38.3511C383.766 39.4097 385.231 40.0044 386.758 40.0044H446.246C447.002 40.0045 447.751 39.8585 448.449 39.5749C449.148 39.2913 449.783 38.8755 450.317 38.3514C450.852 37.8272 451.276 37.2049 451.565 36.52C451.855 35.8352 452.004 35.1011 452.004 34.3599V13.6445C452.004 12.9029 451.855 12.1686 451.565 11.4835C451.276 10.7984 450.851 10.176 450.316 9.65175C449.781 9.12754 449.146 8.71185 448.447 8.42843C447.748 8.14501 446.999 7.99943 446.242 8ZM405.692 32.3388L404.674 29.3925H398.325L397.308 32.3388H392.969L399.125 15.6595H403.92L410.078 32.3388H405.692ZM424.231 23.6793C423.778 24.4794 423.083 25.125 422.147 25.6159C421.21 26.1068 420.047 26.3522 418.657 26.3522H416.088V32.3388H411.944V15.6595H418.657C420.015 15.6595 421.162 15.8892 422.098 16.3488C423.034 16.8084 423.737 17.4417 424.207 18.2489C424.674 19.0566 424.908 19.9833 424.909 21.0289C424.92 21.9549 424.686 22.8679 424.231 23.6793ZM439.352 23.6793C438.899 24.4794 438.205 25.125 437.268 25.6159C436.332 26.1068 435.169 26.3522 433.779 26.3522H431.209V32.3388H427.066V15.6595H433.779C435.136 15.6595 436.282 15.8892 437.22 16.3488C438.157 16.8084 438.859 17.4417 439.328 18.2489C439.796 19.0566 440.03 19.9833 440.031 21.0289C440.041 21.9549 439.807 22.8679 439.352 23.6793ZM418.342 18.94H416.088V23.1179H418.342C419.134 23.1179 419.723 22.9357 420.111 22.5712C420.499 22.2068 420.693 21.6922 420.693 21.0272C420.693 20.3622 420.499 19.8475 420.111 19.4831C419.723 19.1187 419.134 18.9376 418.342 18.94ZM399.415 26.2565H403.608L401.499 20.1516L399.415 26.2565Z" fill="#D56E3B"/>
</g>
<defs>
<clipPath id="clip0_1276_205">
<rect width="71" height="32" fill="white" transform="translate(381 8)"/>
</clipPath>
</defs>
</svg>
