<svg width="123" height="123" viewBox="0 0 123 123" fill="none" xmlns="http://www.w3.org/2000/svg">
<g clip-path="url(#clip0_1205_175)">
<path d="M106.523 0H16.4774C7.3772 0 0 7.35439 0 16.4265V106.574C0 115.646 7.3772 123 16.4774 123H106.523C115.623 123 123 115.646 123 106.574V16.4265C123 7.35439 115.623 0 106.523 0Z" fill="url(#paint0_linear_1205_175)"/>
<path d="M96.8431 44.5064L95.6951 48.009C95.5997 48.3 95.4143 48.5533 95.1655 48.7328C94.9167 48.9123 94.6173 49.0087 94.3103 49.0081H28.6875C28.3807 49.0087 28.0815 48.9123 27.8331 48.7328C27.5847 48.5533 27.3998 48.2999 27.3049 48.009L26.1546 44.5064C26.0832 44.2884 26.0646 44.0566 26.1003 43.83C26.1361 43.6034 26.2252 43.3885 26.3603 43.2029C26.4954 43.0172 26.6727 42.8661 26.8776 42.762C27.0826 42.6578 27.3094 42.6035 27.5395 42.6035H95.4617C95.6918 42.603 95.9187 42.6571 96.1238 42.7612C96.3289 42.8653 96.5062 43.0165 96.6411 43.2024C96.776 43.3882 96.8647 43.6034 96.8998 43.8301C96.935 44.0568 96.9155 44.2886 96.8431 44.5064Z" fill="white"/>
<path d="M93.9857 54.3727L88.7468 76.769C87.7047 81.2196 84.1104 83.6732 78.6289 83.6732C75.6222 83.6732 72.6668 82.9193 71.1794 82.2165L63.6069 78.9977C62.9395 78.7134 62.2212 78.5668 61.4954 78.5668C60.7696 78.5668 60.0513 78.7134 59.3839 78.9977L51.8194 82.2165C50.3286 82.9193 47.3778 83.6766 44.3665 83.6766C38.8828 83.6766 35.2907 81.223 34.2498 76.7701L29.0109 54.3705C28.9667 54.1844 28.9649 53.9908 29.0057 53.8039C29.0465 53.617 29.1289 53.4417 29.2467 53.2907C29.353 53.1538 29.4893 53.0428 29.6453 52.9665C29.8012 52.8901 29.9726 52.8504 30.1464 52.8502H35.2019L37.687 62.6723L40.5444 74.8661C40.6287 75.226 40.7119 75.41 41.1617 75.6609C41.869 76.0617 43.0363 76.291 44.3688 76.291C46.7047 76.291 48.8048 75.6393 49.307 75.4009L49.5075 75.3089L57.9956 71.7007C58.5503 71.4642 59.1271 71.2832 59.7176 71.1603C61.4956 70.7948 63.3433 70.9835 65.01 71.7007L73.6861 75.3975C74.1952 75.6404 76.2907 76.2921 78.6323 76.2921C79.9637 76.2921 81.131 76.0651 81.8371 75.6643C82.2927 75.41 82.3724 75.226 82.4555 74.8695L84.9987 64.0052L87.8083 52.8468H92.8502C93.0241 52.8468 93.1957 52.8865 93.3519 52.9628C93.5081 53.0392 93.6446 53.1502 93.751 53.2873C93.8691 53.4392 93.9515 53.6156 93.9921 53.8034C94.0327 53.9913 94.0305 54.1858 93.9857 54.3727Z" fill="white"/>
</g>
<defs>
<linearGradient id="paint0_linear_1205_175" x1="100.573" y1="-5.96863" x2="22.7895" y2="129.176" gradientUnits="userSpaceOnUse">
<stop stop-color="#D5893B"/>
<stop offset="1" stop-color="#D5573B"/>
</linearGradient>
<clipPath id="clip0_1205_175">
<rect width="123" height="123" fill="white"/>
</clipPath>
</defs>
</svg>
