<svg width="253" height="149" viewBox="0 0 253 149" fill="none" xmlns="http://www.w3.org/2000/svg">
<path d="M252.146 7.37574L248.055 20.0368C247.715 21.0885 247.055 22.0044 246.168 22.6531C245.282 23.3018 244.215 23.6501 243.121 23.6481H9.2863C8.19305 23.6509 7.1271 23.3028 6.24195 22.6538C5.3568 22.0049 4.69813 21.0885 4.36077 20.0368L0.261845 7.37574C0.00415404 6.58666 -0.0646102 5.74698 0.0612099 4.92577C0.18703 4.10457 0.503839 3.32531 0.98557 2.65212C1.4673 1.97893 2.10019 1.43104 2.83216 1.05354C3.56412 0.676032 4.37426 0.479699 5.1959 0.480691H247.212C248.033 0.479171 248.843 0.675273 249.575 1.05281C250.307 1.43035 250.94 1.9785 251.421 2.65203C251.902 3.32557 252.218 4.10516 252.342 4.92649C252.467 5.74782 252.397 6.58733 252.137 7.37574H252.146Z" fill="url(#paint0_linear_1075_88)"/>
<path d="M241.962 43.0404L223.274 124.005C219.559 140.097 206.751 149 187.219 149C176.507 149 165.974 146.276 160.674 143.734L133.694 132.098C131.316 131.07 128.756 130.54 126.17 130.54C123.583 130.54 121.023 131.07 118.645 132.098L91.6654 143.734C86.3649 146.32 75.8321 149 65.1204 149C45.5802 149 32.7806 140.131 29.0737 124.005L10.4368 43.0231C10.2812 42.3493 10.277 41.6488 10.4245 40.9731C10.572 40.2974 10.8673 39.6638 11.2889 39.1188C11.6695 38.627 12.1558 38.2294 12.711 37.9561C13.2662 37.6828 13.8756 37.5411 14.4931 37.5416H32.4994L41.3534 73.0252L51.5283 117.128C51.6111 117.756 51.8543 118.352 52.2338 118.857C52.6133 119.361 53.1161 119.758 53.6928 120.006C56.2493 121.454 60.3738 122.282 65.1204 122.282C73.446 122.282 80.9281 119.929 82.7176 119.067L83.4334 118.731L113.677 105.69C115.653 104.835 117.709 104.18 119.812 103.734C126.148 102.414 132.732 103.097 138.671 105.69L169.596 119.05C171.411 119.911 178.876 122.282 187.219 122.282C191.966 122.282 196.124 121.42 198.638 120.015C199.223 119.77 199.734 119.375 200.121 118.868C200.509 118.362 200.758 117.762 200.845 117.128L209.904 77.8517L219.959 37.5416H237.923C238.547 37.5358 239.165 37.675 239.728 37.9484C240.291 38.2218 240.784 38.6222 241.17 39.1188C241.582 39.6714 241.868 40.3103 242.005 40.9888C242.142 41.6673 242.127 42.3683 241.962 43.0404Z" fill="url(#paint1_linear_1075_88)"/>
<defs>
<linearGradient id="paint0_linear_1075_88" x1="-134.5" y1="12.0557" x2="214.241" y2="12.0557" gradientUnits="userSpaceOnUse">
<stop stop-color="#D5573B"/>
<stop offset="1" stop-color="#D5893B"/>
</linearGradient>
<linearGradient id="paint1_linear_1075_88" x1="-134.5" y1="93.2449" x2="214.241" y2="93.2449" gradientUnits="userSpaceOnUse">
<stop stop-color="#D5573B"/>
<stop offset="1" stop-color="#D5893B"/>
</linearGradient>
</defs>
</svg>
