<svg width="743" height="148" viewBox="0 0 743 148" fill="none" xmlns="http://www.w3.org/2000/svg">
<path d="M167.52 36L138.172 145.692H101.435L84.3319 74.5261L66.6494 145.692H30.1084L0.563751 36H33.7983L49.1373 114.431L67.4078 36H102.585L121.052 114.043L136.203 36H167.52Z" fill="#FBF5F3"/>
<path d="M189.315 60.5575C193.524 52.0363 199.259 45.4832 206.52 40.898C213.8 36.2975 222.231 33.9047 230.815 34.0029C238.462 34.0029 245.166 35.5744 250.926 38.7174C256.379 41.5663 260.976 45.8435 264.237 51.1026V35.5888H297.472V145.28H264.237V129.766C260.865 135.003 256.212 139.269 250.73 142.152C244.97 145.3 238.266 146.872 230.619 146.866C222.087 146.948 213.715 144.523 206.52 139.885C199.259 135.242 193.524 128.635 189.315 120.062C185.105 111.489 183 101.563 183 90.2837C183 78.9816 185.105 69.0728 189.315 60.5575ZM257.343 70.5811C255.17 68.291 252.563 66.4672 249.678 65.2184C246.793 63.9695 243.688 63.3214 240.55 63.3125C237.411 63.3037 234.303 63.9343 231.411 65.1669C228.519 66.3994 225.902 68.2085 223.717 70.4863C219.115 75.2784 216.814 81.866 216.814 90.2492C216.814 98.6325 219.115 105.283 223.717 110.202C225.873 112.52 228.475 114.37 231.362 115.637C234.25 116.904 237.362 117.562 240.51 117.571C243.657 117.58 246.773 116.939 249.668 115.688C252.562 114.438 255.174 112.603 257.343 110.297C261.939 105.453 264.237 98.8451 264.237 90.4733C264.237 82.1016 261.939 75.4709 257.343 70.5811Z" fill="#FBF5F3"/>
<path d="M359.807 40.1748C365.701 36.6977 372.421 34.9099 379.245 35.0035V70.5388H370.109C361.815 70.5388 355.594 72.343 351.447 75.9515C347.3 79.5599 345.229 85.8803 345.235 94.9128V109.754H312V36.1412H345.235V54.4217C348.926 48.5872 353.916 43.708 359.807 40.1748Z" fill="#FBF5F3"/>
<path d="M414.155 142.124C406.769 138.849 400.938 134.361 396.66 128.662C392.444 123.118 389.944 116.437 389.476 109.459H422.319C422.485 111.29 423.041 113.063 423.947 114.658C424.853 116.252 426.088 117.63 427.568 118.698C430.899 121.128 434.933 122.371 439.038 122.232C443.18 122.232 446.384 121.422 448.659 119.776C449.713 119.087 450.577 118.141 451.173 117.024C451.769 115.908 452.077 114.658 452.068 113.389C452.068 110.243 450.44 107.916 447.21 106.408C443.981 104.9 438.689 103.236 431.462 101.4C424.858 99.9424 418.361 98.0274 412.016 95.6688C406.825 93.6332 402.218 90.3215 398.611 86.0329C394.845 81.6431 392.964 75.7133 392.97 68.2437C392.913 62.1009 394.712 56.087 398.126 51.0061C401.534 45.8348 406.588 41.738 413.286 38.7157C419.984 35.6933 427.92 34.1879 437.095 34.1994C450.696 34.1994 461.416 37.6067 469.256 44.4213C477.096 51.2359 481.598 60.2742 482.763 71.5361H452.085C451.891 69.772 451.353 68.0644 450.502 66.5123C449.65 64.9603 448.503 63.5947 447.125 62.495C444.336 60.2598 440.674 59.1451 436.141 59.1509C432.255 59.1509 429.275 59.9036 427.202 61.409C426.21 62.0946 425.406 63.0217 424.862 64.1048C424.318 65.1878 424.053 66.3919 424.091 67.6059C424.091 70.7547 425.744 73.1133 429.051 74.682C432.357 76.2506 437.507 77.8221 444.501 79.3965C451.152 81.0596 457.697 83.1291 464.1 85.5934C469.268 87.7132 473.839 91.0878 477.411 95.4188C481.229 99.9466 483.217 106.008 483.376 113.604C483.464 119.782 481.588 125.824 478.025 130.842C474.463 135.887 469.35 139.849 462.686 142.727C456.022 145.606 448.278 147.043 439.456 147.037C429.974 147.037 421.54 145.399 414.155 142.124Z" fill="#FBF5F3"/>
<path d="M600.354 47.0759C607.87 55.4017 611.628 66.836 611.628 81.3788V145.468H578.581V85.9037C578.581 78.5719 576.703 72.872 572.948 68.8039C569.193 64.7359 564.139 62.7047 557.788 62.7105C551.436 62.7105 546.383 64.7416 542.628 68.8039C538.872 72.8663 536.995 78.5662 536.995 85.9037V145.468H503.76V0H536.995V50.5235C540.536 45.5261 545.287 41.5316 550.791 38.9225C556.911 35.9846 563.618 34.5101 570.391 34.6131C582.85 34.6016 592.837 38.7559 600.354 47.0759Z" fill="#FBF5F3"/>
<path d="M634.466 60.7454C638.67 52.2243 644.402 45.6711 651.663 41.0859C658.943 36.4864 667.374 34.0935 675.958 34.1908C683.599 34.1908 690.306 35.7623 696.078 38.9053C701.527 41.7591 706.123 46.0353 709.389 51.2905V35.7767H742.623V145.468H709.389V129.954C706.014 135.189 701.362 139.454 695.882 142.34C690.115 145.488 683.409 147.06 675.762 147.054C667.23 147.136 658.858 144.711 651.663 140.073C644.402 135.43 638.67 128.822 634.466 120.25C630.262 111.677 628.154 101.751 628.143 90.4717C628.143 79.1695 630.25 69.2608 634.466 60.7454ZM702.486 70.7691C700.315 68.4776 697.709 66.6522 694.825 65.4021C691.941 64.152 688.837 63.5027 685.699 63.493C682.561 63.4834 679.453 64.1135 676.561 65.3459C673.669 66.5783 671.053 68.3876 668.868 70.6656C664.266 75.4577 661.965 82.0453 661.965 90.4286C661.965 98.8118 664.266 105.463 668.868 110.381C671.024 112.699 673.625 114.549 676.511 115.816C679.398 117.082 682.51 117.74 685.657 117.749C688.804 117.758 691.919 117.118 694.813 115.867C697.706 114.617 700.317 112.782 702.486 110.476C707.088 105.632 709.389 99.0244 709.389 90.6526C709.389 82.2809 707.088 75.653 702.486 70.7691Z" fill="#FBF5F3"/>
<path d="M345.743 123.913H312.116V147.045H345.743V123.913Z" fill="url(#paint0_linear_1075_90)"/>
<defs>
<linearGradient id="paint0_linear_1075_90" x1="312.116" y1="135.47" x2="345.743" y2="135.47" gradientUnits="userSpaceOnUse">
<stop stop-color="#D5573B"/>
<stop offset="1" stop-color="#D5893B"/>
</linearGradient>
</defs>
</svg>
