<svg width="69" height="41" viewBox="0 0 69 41" fill="none" xmlns="http://www.w3.org/2000/svg">
<path d="M68.0409 2.41896L66.9371 5.83551C66.8453 6.11932 66.6671 6.36646 66.4279 6.54151C66.1887 6.71657 65.9009 6.81056 65.6057 6.81001H2.50589C2.21087 6.81078 1.92323 6.71684 1.68438 6.54172C1.44552 6.3666 1.26778 6.11933 1.17674 5.83551L0.0706582 2.41896C0.00112096 2.20603 -0.0174349 1.97945 0.0165174 1.75785C0.0504696 1.53625 0.13596 1.32597 0.265954 1.14431C0.395948 0.962648 0.56673 0.814802 0.76425 0.712933C0.96177 0.611064 1.18038 0.558084 1.4021 0.558352H66.7094C66.9311 0.557942 67.1497 0.610859 67.3472 0.712737C67.5447 0.814615 67.7154 0.962533 67.8453 1.14428C67.9751 1.32603 68.0604 1.53641 68.094 1.75804C68.1276 1.97967 68.1086 2.20621 68.0386 2.41896H68.0409Z" fill="url(#paint0_linear_1205_234)"/>
<path d="M65.2929 12.0429L60.25 33.8911C59.2474 38.2333 55.7912 40.6359 50.5206 40.6359C47.6301 40.6359 44.7878 39.9009 43.3575 39.2148L36.0771 36.075C35.4353 35.7976 34.7445 35.6546 34.0466 35.6546C33.3486 35.6546 32.6579 35.7976 32.0161 36.075L24.7357 39.2148C23.3054 39.9125 20.4631 40.6359 17.5726 40.6359C12.2997 40.6359 8.84577 38.2426 7.84547 33.8911L2.81634 12.0383C2.77436 11.8564 2.77323 11.6674 2.81303 11.4851C2.85282 11.3027 2.93253 11.1317 3.0463 10.9847C3.14899 10.852 3.28023 10.7447 3.43004 10.6709C3.57985 10.5972 3.74431 10.5589 3.91093 10.5591H8.76989L11.1591 20.1342L13.9048 32.0352C13.9271 32.2048 13.9928 32.3656 14.0952 32.5018C14.1976 32.638 14.3333 32.7449 14.4889 32.812C15.1787 33.2027 16.2917 33.426 17.5726 33.426C19.8192 33.426 21.8383 32.791 22.3212 32.5585L22.5143 32.4678L30.6754 28.9489C31.2088 28.7182 31.7634 28.5413 32.3311 28.4209C34.0408 28.0648 35.8174 28.2491 37.42 28.9489L45.7651 32.5538C46.2549 32.7864 48.2693 33.426 50.5206 33.426C51.8014 33.426 52.9236 33.1934 53.602 32.8143C53.7598 32.7482 53.8978 32.6416 54.0023 32.5049C54.1068 32.3682 54.1741 32.2063 54.1976 32.0352L56.642 21.4367L59.3555 10.5591H64.2029C64.3714 10.5575 64.538 10.5951 64.6899 10.6689C64.8418 10.7426 64.9749 10.8507 65.0791 10.9847C65.1904 11.1338 65.2675 11.3062 65.3045 11.4893C65.3415 11.6724 65.3375 11.8615 65.2929 12.0429Z" fill="url(#paint1_linear_1205_234)"/>
<defs>
<linearGradient id="paint0_linear_1205_234" x1="-36.2945" y1="3.68185" x2="57.8125" y2="3.68185" gradientUnits="userSpaceOnUse">
<stop stop-color="#D5573B"/>
<stop offset="1" stop-color="#D5893B"/>
</linearGradient>
<linearGradient id="paint1_linear_1205_234" x1="-36.2945" y1="25.5905" x2="57.8125" y2="25.5905" gradientUnits="userSpaceOnUse">
<stop stop-color="#D5573B"/>
<stop offset="1" stop-color="#D5893B"/>
</linearGradient>
</defs>
</svg>
