<svg width="149" height="28" viewBox="0 0 149 28" fill="none" xmlns="http://www.w3.org/2000/svg">
<path d="M33.467 6.63959L27.584 26.9968H20.22L16.7916 13.7895L13.2471 26.9968H5.92233L0 6.63959H6.66198L9.73674 21.1953L13.3991 6.63959H20.4506L24.1522 21.1233L27.1894 6.63959H33.467Z" fill="#FBF5F3"/>
<path d="M35.9405 11.2734C36.7844 9.69201 37.934 8.47584 39.3894 7.62489C40.8487 6.77112 42.5388 6.32703 44.2594 6.34527C45.7923 6.34527 47.1361 6.63691 48.2908 7.22021C49.3839 7.74892 50.3054 8.54272 50.959 9.51873V6.63958H57.621V26.9967H50.959V24.1176C50.2831 25.0894 49.3504 25.8812 48.2515 26.4161C47.0968 27.0005 45.753 27.2921 44.2202 27.2911C42.5099 27.3062 40.8317 26.8561 39.3894 25.9954C37.934 25.1338 36.7844 23.9075 35.9405 22.3165C35.0967 20.7255 34.6747 18.8834 34.6747 16.7902C34.6747 14.6927 35.0967 12.8537 35.9405 11.2734ZM49.5771 13.1337C49.1415 12.7086 48.6189 12.3702 48.0405 12.1384C47.4622 11.9066 46.8399 11.7864 46.2108 11.7847C45.5817 11.7831 44.9587 11.9001 44.379 12.1288C43.7992 12.3576 43.2746 12.6933 42.8365 13.1161C41.9141 14.0054 41.4529 15.228 41.4529 16.7838C41.4529 18.3396 41.9141 19.5739 42.8365 20.4867C43.2688 20.917 43.7903 21.2602 44.3691 21.4953C44.9479 21.7305 45.5718 21.8526 46.2028 21.8542C46.8337 21.8559 47.4583 21.737 48.0385 21.5049C48.6187 21.2728 49.1422 20.9323 49.5771 20.5043C50.4984 19.6053 50.959 18.379 50.959 16.8254C50.959 15.2717 50.4984 14.0411 49.5771 13.1337Z" fill="#FBF5F3"/>
<path d="M72.0365 7.38819C73.2181 6.74289 74.5651 6.41111 75.9329 6.42847V13.0233H74.1017C72.4391 13.0233 71.1921 13.3582 70.3607 14.0278C69.5294 14.6975 69.1143 15.8705 69.1155 17.5468V20.3012H62.4535V6.63961H69.1155V10.0322C69.8553 8.94942 70.8557 8.04391 72.0365 7.38819Z" fill="#FBF5F3"/>
<path d="M82.9057 26.3762C81.4253 25.7684 80.2563 24.9355 79.3988 23.8777C78.5537 22.8489 78.0527 21.6089 77.9588 20.314H84.5422C84.5756 20.6538 84.687 20.9829 84.8685 21.2788C85.0501 21.5747 85.2977 21.8305 85.5944 22.0287C86.2621 22.4797 87.0709 22.7103 87.8937 22.6845C88.7239 22.6845 89.3661 22.5341 89.8222 22.2286C90.0334 22.1008 90.2067 21.9252 90.3262 21.718C90.4456 21.5108 90.5073 21.2788 90.5055 21.0434C90.5055 20.4595 90.1793 20.0277 89.5319 19.7477C88.8844 19.4678 87.8236 19.1591 86.3751 18.8184C85.0512 18.5478 83.7488 18.1924 82.477 17.7547C81.4365 17.377 80.5131 16.7624 79.79 15.9665C79.035 15.1518 78.658 14.0513 78.6592 12.665C78.6477 11.525 79.0083 10.4089 79.6926 9.46598C80.3759 8.50627 81.3889 7.74596 82.7315 7.18506C84.0742 6.62416 85.6651 6.34477 87.5042 6.34691C90.2305 6.34691 92.3794 6.97925 93.951 8.24394C95.5225 9.50864 96.425 11.186 96.6585 13.2761H90.5089C90.4701 12.9487 90.3623 12.6318 90.1916 12.3437C90.0209 12.0557 89.7909 11.8023 89.5148 11.5982C88.9556 11.1833 88.2217 10.9765 87.3129 10.9775C86.534 10.9775 85.9367 11.1172 85.521 11.3966C85.3223 11.5238 85.161 11.6959 85.052 11.8969C84.9431 12.0979 84.8899 12.3214 84.8975 12.5467C84.8975 13.131 85.2289 13.5688 85.8917 13.8599C86.5545 14.151 87.5868 14.4426 88.9886 14.7348C90.3219 15.0435 91.6339 15.4275 92.9175 15.8849C93.9533 16.2783 94.8697 16.9046 95.5857 17.7083C96.351 18.5486 96.7496 19.6736 96.7815 21.0833C96.799 22.2298 96.423 23.3512 95.7087 24.2824C94.9947 25.2186 93.9698 25.9539 92.6339 26.4881C91.2981 27.0224 89.7459 27.289 87.9774 27.2879C86.0767 27.2879 84.3862 26.984 82.9057 26.3762Z" fill="#FBF5F3"/>
<path d="M120.23 8.73661C121.737 10.2818 122.49 12.4038 122.49 15.1027V26.9968H115.865V15.9425C115.865 14.5818 115.489 13.524 114.736 12.769C113.984 12.014 112.971 11.6371 111.697 11.6382C110.424 11.6382 109.411 12.0151 108.659 12.769C107.906 13.5229 107.529 14.5807 107.529 15.9425V26.9968H100.867V0H107.529V9.37642C108.239 8.44898 109.192 7.70767 110.295 7.22346C111.522 6.67822 112.866 6.40457 114.224 6.4237C116.721 6.42156 118.723 7.19254 120.23 8.73661Z" fill="#FBF5F3"/>
<path d="M127.068 11.2735C127.911 9.69206 129.06 8.47589 130.515 7.62494C131.974 6.77133 133.664 6.32726 135.385 6.34532C136.917 6.34532 138.261 6.63696 139.418 7.22026C140.511 7.74987 141.432 8.54347 142.086 9.51878V6.63963H148.748V26.9968H142.086V24.1177C141.41 25.0891 140.477 25.8807 139.379 26.4162C138.223 27.0005 136.879 27.2922 135.346 27.2911C133.636 27.3063 131.957 26.8562 130.515 25.9955C129.06 25.1339 127.911 23.9076 127.068 22.3166C126.225 20.7256 125.803 18.8835 125.8 16.7902C125.8 14.6927 126.223 12.8538 127.068 11.2735ZM140.703 13.1337C140.267 12.7084 139.745 12.3697 139.167 12.1377C138.589 11.9057 137.967 11.7852 137.338 11.7834C136.709 11.7816 136.086 11.8985 135.506 12.1273C134.926 12.356 134.402 12.6917 133.964 13.1145C133.041 14.0039 132.58 15.2264 132.58 16.7822C132.58 18.338 133.041 19.5723 133.964 20.4851C134.396 20.9154 134.917 21.2586 135.496 21.4937C136.075 21.7288 136.698 21.8509 137.329 21.8526C137.96 21.8542 138.584 21.7354 139.165 21.5033C139.745 21.2712 140.268 20.9307 140.703 20.5027C141.625 19.6038 142.086 18.3775 142.086 16.8238C142.086 15.2701 141.625 14.0401 140.703 13.1337Z" fill="#FBF5F3"/>
<path d="M69.1923 22.9964H62.4518V27.2895H69.1923V22.9964Z" fill="#FBF5F3"/>
</svg>
