<svg width="32" height="31" viewBox="0 0 32 31" fill="none" xmlns="http://www.w3.org/2000/svg">
<path id="Subtract" fill-rule="evenodd" clip-rule="evenodd" d="M7 0C3.13401 0 0 3.13401 0 7V24C0 27.866 3.13401 31 7 31H25C28.866 31 32 27.866 32 24V7C32 3.13401 28.866 0 25 0H7ZM23.011 20.6882C23.781 18.1626 22.6204 15.7228 20.2601 14.7033C20.2434 14.6976 20.2322 14.6804 20.2211 14.6518C20.1095 13.2143 19.6631 11.7939 18.4076 11.0036C17.5706 10.4824 16.4937 10.3278 15.534 10.4595C14.3734 10.6141 13.4583 11.1811 12.7831 12.1548C12.7664 12.1834 12.772 12.212 12.7943 12.2292L14.0553 13.1112C14.0776 13.1284 14.1055 13.1226 14.1223 13.0997C14.5185 12.5385 15.0485 12.212 15.7237 12.1261C16.7783 11.9887 17.8329 12.2693 18.3016 13.3288C18.3909 13.5293 18.4634 13.787 18.5248 14.102V14.1192C18.5192 14.1478 18.4969 14.1707 18.469 14.165C17.7938 14.0676 17.0629 14.0333 16.2705 14.0734C14.87 14.1421 13.3969 14.7377 12.7943 16.1122C12.214 17.4409 12.6715 19.056 13.8879 19.8463C15.4112 20.8314 17.6655 20.7111 18.96 19.3423C19.345 18.9357 19.6352 18.4375 19.836 17.859C19.9755 17.4524 20.0704 17.0343 20.1262 16.6105C20.1262 16.6048 20.1262 16.599 20.1318 16.5933C20.1429 16.5704 20.1764 16.5589 20.1987 16.5761C20.6842 16.8739 21.0524 17.2691 21.298 17.7617C21.7276 18.6264 21.6885 19.7318 21.298 20.6023C20.6953 21.9482 19.2111 22.8875 17.8273 23.1509C16.862 23.3342 15.8744 23.3514 14.8644 23.2082C12.9896 22.9333 11.4328 21.9425 10.5735 20.1785C9.55239 18.0824 9.43522 15.4479 9.80907 13.1742C10.2666 10.3736 11.829 8.33474 14.6579 7.81356C17.0573 7.37257 19.8416 7.93956 21.3593 10.0586C21.8448 10.7344 22.1963 11.5076 22.4195 12.3781C22.4251 12.401 22.453 12.4182 22.4809 12.4125L23.9651 12.0116C23.993 12.0058 24.0042 11.9772 23.9986 11.9486C23.8033 11.2098 23.5411 10.5454 23.2174 9.94407C22.1684 7.98538 20.4387 6.69104 18.3072 6.23287C16.2538 5.79188 13.8545 5.94078 11.9796 6.99458C9.49102 8.38628 8.36389 11.0952 8.0849 13.8729C7.68315 17.8418 8.62614 22.6126 12.6659 24.3307C14.6579 25.1783 17.3698 25.2299 19.3897 24.4338C20.9911 23.8038 22.4865 22.4121 23.011 20.6882ZM15.3554 18.7009C14.5687 18.4947 13.9884 17.8132 14.2395 16.9484C14.4571 16.1981 15.3219 15.8717 16.0194 15.7972C16.8787 15.7113 17.7213 15.7457 18.5415 15.9118C18.5638 15.9118 18.5806 15.9347 18.5806 15.9633C18.5415 16.5761 18.4188 17.1145 18.2123 17.5727C17.6878 18.7353 16.4602 18.9873 15.3554 18.7009Z" fill="#190B28"/>
</svg>
