<svg width="151" height="89" viewBox="0 0 151 89" fill="none" xmlns="http://www.w3.org/2000/svg">
<path d="M150.209 4.08742L147.784 11.5929C147.582 12.2164 147.191 12.7593 146.665 13.1439C146.14 13.5284 145.508 13.7349 144.859 13.7337H6.24086C5.59277 13.7354 4.96087 13.529 4.43615 13.1443C3.91143 12.7596 3.52097 12.2164 3.32098 11.5929L0.891124 4.08742C0.738363 3.61965 0.6976 3.12188 0.772186 2.63507C0.846773 2.14825 1.03458 1.68631 1.32015 1.28724C1.60572 0.888166 1.9809 0.563377 2.41481 0.33959C2.84873 0.115804 3.32898 -0.000582757 3.81605 5.19783e-06H147.284C147.771 -0.000895813 148.251 0.115354 148.685 0.339161C149.119 0.562967 149.494 0.887915 149.779 1.28719C150.064 1.68646 150.252 2.14861 150.325 2.63549C150.399 3.12238 150.358 3.62004 150.204 4.08742H150.209Z" fill="#190B28"/>
<path d="M144.172 25.2295L133.094 73.226C130.891 82.765 123.299 88.0428 111.72 88.0428C105.37 88.0428 99.1262 86.4283 95.9841 84.9211L79.9904 78.0236C78.5805 77.4142 77.0631 77.1 75.5298 77.1C73.9965 77.1 72.4791 77.4142 71.0692 78.0236L55.0755 84.9211C51.9334 86.4538 45.6895 88.0428 39.3395 88.0428C27.756 88.0428 20.1684 82.7854 17.9709 73.226L6.92286 25.2193C6.83064 24.8199 6.82816 24.4046 6.91558 24.0041C7.00301 23.6035 7.17812 23.2279 7.42803 22.9048C7.65363 22.6133 7.94193 22.3776 8.27104 22.2156C8.60016 22.0536 8.96144 21.9695 9.32746 21.9698H20.0017L25.2504 43.0047L31.2821 69.1488C31.3312 69.5214 31.4753 69.8746 31.7003 70.1738C31.9253 70.473 32.2233 70.7079 32.5652 70.8553C34.0807 71.7136 36.5257 72.2041 39.3395 72.2041C44.275 72.2041 48.7104 70.8093 49.7712 70.2984L50.1956 70.0991L68.124 62.3688C69.2957 61.8619 70.514 61.4735 71.7612 61.209C75.5171 60.4266 79.42 60.8315 82.9406 62.3688L101.273 70.2881C102.349 70.7991 106.774 72.2041 111.72 72.2041C114.534 72.2041 116.999 71.6932 118.489 70.8604C118.836 70.7152 119.139 70.4809 119.369 70.1806C119.598 69.8804 119.746 69.5247 119.798 69.1488L125.168 45.8659L131.129 21.9698H141.778C142.148 21.9664 142.514 22.0489 142.847 22.211C143.181 22.3731 143.474 22.6105 143.702 22.9048C143.947 23.2324 144.116 23.6112 144.197 24.0134C144.279 24.4156 144.27 24.8311 144.172 25.2295Z" fill="#190B28"/>
</svg>
