<svg width="440" height="88" viewBox="0 0 440 88" fill="none" xmlns="http://www.w3.org/2000/svg">
<path d="M98.9727 22.1655L81.5747 87.1911H59.7969L49.6582 45.0039L39.176 87.1911H17.5143L0.000137329 22.1655H19.7017L28.7947 68.6598L39.6255 22.1655H60.4789L71.4259 68.4299L80.4078 22.1655H98.9727Z" fill="#190B28"/>
<path d="M111.892 36.7233C114.388 31.672 117.788 27.7872 122.092 25.0691C126.407 22.342 131.406 20.9235 136.494 20.9817C141.027 20.9817 145.001 21.9133 148.416 23.7765C151.649 25.4653 154.374 28.0009 156.307 31.1185V21.9218H176.008V86.9474H156.307V77.7507C154.308 80.8549 151.55 83.3839 148.3 85.0927C144.885 86.9593 140.911 87.8909 136.378 87.8875C131.32 87.936 126.357 86.4983 122.092 83.749C117.788 80.9968 114.388 77.0797 111.892 71.9977C109.397 66.9157 108.149 61.0315 108.149 54.3452C108.149 47.6452 109.397 41.7713 111.892 36.7233ZM152.22 42.6654C150.932 41.3078 149.386 40.2267 147.676 39.4863C145.966 38.746 144.125 38.3618 142.265 38.3566C140.404 38.3513 138.562 38.7252 136.848 39.4558C135.133 40.1865 133.582 41.2589 132.286 42.6092C129.558 45.45 128.194 49.3551 128.194 54.3248C128.194 59.2944 129.558 63.237 132.286 66.1527C133.564 67.5272 135.107 68.6235 136.818 69.3745C138.53 70.1256 140.375 70.5157 142.241 70.521C144.107 70.5263 145.954 70.1466 147.67 69.4051C149.386 68.6637 150.934 67.5761 152.22 66.2089C154.945 63.3375 156.307 59.4204 156.307 54.4576C156.307 49.4948 154.945 45.5641 152.22 42.6654Z" fill="#190B28"/>
<path d="M212.961 24.6404C216.455 22.5791 220.439 21.5194 224.484 21.5748V42.6403H219.068C214.151 42.6403 210.464 43.7099 208.005 45.8489C205.547 47.988 204.319 51.7348 204.322 57.0893V65.8875H184.621V22.2492H204.322V33.086C206.51 29.6273 209.469 26.7349 212.961 24.6404Z" fill="#190B28"/>
<path d="M245.178 85.0764C240.8 83.1349 237.343 80.4746 234.807 77.0957C232.308 73.8095 230.826 69.8487 230.549 65.7123H250.018C250.117 66.7978 250.446 67.849 250.983 68.7942C251.52 69.7394 252.252 70.5564 253.13 71.1894C255.104 72.63 257.496 73.3668 259.929 73.2842C262.384 73.2842 264.284 72.8039 265.633 71.8281C266.257 71.4198 266.77 70.8589 267.123 70.1971C267.476 69.5353 267.659 68.7941 267.653 68.0421C267.653 66.1772 266.688 64.7977 264.774 63.9036C262.859 63.0095 259.722 62.0234 255.438 60.9351C251.523 60.0709 247.672 58.9356 243.91 57.5375C240.833 56.3308 238.102 54.3676 235.964 51.8253C233.731 49.223 232.617 45.7078 232.62 41.2798C232.586 37.6383 233.652 34.0732 235.676 31.0612C237.697 27.9957 240.692 25.5671 244.663 23.7754C248.634 21.9838 253.339 21.0914 258.778 21.0982C266.84 21.0982 273.195 23.118 277.843 27.1578C282.49 31.1975 285.159 36.5554 285.849 43.2315H267.663C267.549 42.1858 267.23 41.1735 266.725 40.2534C266.22 39.3333 265.54 38.5238 264.723 37.8719C263.07 36.5469 260.899 35.8861 258.212 35.8895C255.908 35.8895 254.142 36.3357 252.912 37.2281C252.325 37.6346 251.848 38.1842 251.526 38.8262C251.203 39.4682 251.046 40.182 251.069 40.9017C251.069 42.7683 252.049 44.1665 254.009 45.0964C255.969 46.0263 259.022 46.9579 263.167 47.8912C267.11 48.8771 270.99 50.1039 274.786 51.5647C277.85 52.8214 280.56 54.8218 282.677 57.3893C284.94 60.0733 286.119 63.6669 286.213 68.1698C286.265 71.8318 285.153 75.4138 283.041 78.3884C280.929 81.379 277.898 83.7275 273.948 85.434C269.997 87.1405 265.407 87.9921 260.177 87.9887C254.556 87.9887 249.556 87.0179 245.178 85.0764Z" fill="#190B28"/>
<path d="M355.558 28.7315C360.013 33.667 362.241 40.4453 362.241 49.0664V87.0588H342.651V51.7487C342.651 47.4025 341.538 44.0235 339.311 41.612C337.085 39.2004 334.09 37.9963 330.324 37.9997C326.559 37.9997 323.564 39.2038 321.338 41.612C319.111 44.0201 317.998 47.399 317.998 51.7487V87.0588H298.297V0.824707H317.998V30.7752C320.098 27.8127 322.914 25.4448 326.177 23.8981C329.805 22.1565 333.78 21.2824 337.796 21.3435C345.181 21.3367 351.102 23.7994 355.558 28.7315Z" fill="#190B28"/>
<path d="M375.78 36.8349C378.272 31.7835 381.67 27.8988 385.974 25.1807C390.29 22.454 395.288 21.0356 400.376 21.0932C404.906 21.0932 408.882 22.0248 412.303 23.888C415.534 25.5797 418.258 28.1147 420.194 31.23V22.0333H439.896V87.0589H420.194V77.8623C418.194 80.9652 415.436 83.494 412.187 85.2043C408.769 87.0709 404.793 88.0025 400.26 87.9991C395.202 88.0475 390.24 86.6098 385.974 83.8605C381.67 81.1084 378.272 77.1913 375.78 72.1092C373.288 67.0272 372.038 61.1431 372.031 54.4567C372.031 47.7568 373.281 41.8828 375.78 36.8349ZM416.102 42.777C414.815 41.4186 413.271 40.3365 411.561 39.5954C409.851 38.8543 408.011 38.4694 406.151 38.4637C404.291 38.458 402.448 38.8315 400.734 39.5621C399.02 40.2927 397.469 41.3652 396.173 42.7156C393.445 45.5564 392.082 49.4616 392.082 54.4312C392.082 59.4008 393.445 63.3435 396.173 66.2591C397.451 67.6335 398.993 68.7297 400.704 69.4807C402.416 70.2317 404.261 70.6218 406.126 70.6271C407.991 70.6323 409.838 70.2527 411.554 69.5113C413.269 68.7699 414.817 67.6824 416.102 66.3153C418.83 63.4439 420.194 59.5268 420.194 54.564C420.194 49.6012 418.83 45.6722 416.102 42.777Z" fill="#190B28"/>
<path d="M204.624 74.2808H184.69V87.994H204.624V74.2808Z" fill="#190B28"/>
</svg>
