<svg width="201" height="40" viewBox="0 0 201 40" fill="none" xmlns="http://www.w3.org/2000/svg">
<path d="M45.81 9.71448L37.8903 39.3145H27.977L23.3618 20.1106L18.5902 39.3145H8.7297L0.757141 9.71448H9.7254L13.8646 30.8789L18.7948 9.71448H28.2874L33.2705 30.7743L37.3591 9.71448H45.81Z" fill="#190B28"/>
<path d="M51.6911 16.3413C52.8271 14.0419 54.3747 12.2735 56.3339 11.0362C58.2984 9.79479 60.5736 9.14908 62.8899 9.17559C64.9534 9.17559 66.7624 9.59965 68.3169 10.4478C69.7884 11.2165 71.0289 12.3708 71.9088 13.7899V9.60353H80.877V39.2035H71.9088V35.0172C70.9988 36.4302 69.7433 37.5814 68.264 38.3593C66.7095 39.209 64.9005 39.633 62.837 39.6315C60.5347 39.6535 58.2756 38.9991 56.3339 37.7476C54.3747 36.4948 52.8271 34.7117 51.6911 32.3983C50.5551 30.085 49.9871 27.4065 49.9871 24.3628C49.9871 21.313 50.5551 18.6391 51.6911 16.3413ZM70.0484 19.0461C69.462 18.4282 68.7585 17.936 67.98 17.599C67.2014 17.262 66.3637 17.0871 65.5168 17.0847C64.6699 17.0823 63.8312 17.2525 63.0508 17.5851C62.2704 17.9177 61.5642 18.4059 60.9744 19.0205C59.7326 20.3137 59.1118 22.0913 59.1118 24.3535C59.1118 26.6157 59.7326 28.4104 60.9744 29.7377C61.5564 30.3633 62.2584 30.8624 63.0375 31.2043C63.8167 31.5462 64.6566 31.7237 65.506 31.7261C66.3553 31.7285 67.1962 31.5557 67.9772 31.2182C68.7583 30.8807 69.463 30.3856 70.0484 29.7633C71.2887 28.4562 71.9088 26.6731 71.9088 24.414C71.9088 22.1549 71.2887 20.3656 70.0484 19.0461Z" fill="#190B28"/>
<path d="M97.698 10.8411C99.2887 9.90281 101.102 9.4204 102.943 9.44564V19.0348H100.478C98.2399 19.0348 96.5612 19.5216 95.4421 20.4953C94.323 21.4691 93.7642 23.1746 93.7657 25.612V29.617H84.7975V9.75265H93.7657V14.6856C94.7618 13.1112 96.1084 11.7945 97.698 10.8411Z" fill="#190B28"/>
<path d="M112.364 38.3519C110.371 37.4681 108.797 36.2571 107.643 34.719C106.505 33.2231 105.83 31.4201 105.704 29.5372H114.567C114.612 30.0314 114.761 30.5099 115.006 30.9401C115.25 31.3704 115.584 31.7423 115.983 32.0305C116.882 32.6862 117.971 33.0216 119.078 32.984C120.196 32.984 121.061 32.7654 121.674 32.3212C121.959 32.1353 122.192 31.88 122.353 31.5787C122.514 31.2775 122.597 30.9401 122.594 30.5978C122.594 29.7489 122.155 29.1209 121.284 28.7139C120.412 28.3069 118.984 27.858 117.034 27.3626C115.252 26.9692 113.499 26.4525 111.786 25.816C110.386 25.2667 109.143 24.3731 108.169 23.2158C107.153 22.0312 106.645 20.4311 106.647 18.4154C106.632 16.7578 107.117 15.135 108.038 13.7639C108.958 12.3684 110.322 11.2629 112.129 10.4474C113.937 9.63179 116.078 9.22555 118.554 9.22866C122.224 9.22866 125.117 10.1481 127.233 11.987C129.348 13.8259 130.563 16.2649 130.877 19.3039H122.599C122.547 18.8278 122.401 18.367 122.172 17.9482C121.942 17.5294 121.632 17.1609 121.261 16.8641C120.508 16.261 119.52 15.9602 118.296 15.9617C117.248 15.9617 116.444 16.1649 115.884 16.5711C115.617 16.7561 115.4 17.0063 115.253 17.2985C115.106 17.5908 115.035 17.9157 115.045 18.2433C115.045 19.093 115.491 19.7295 116.383 20.1528C117.275 20.5761 118.665 21.0001 120.552 21.425C122.347 21.8738 124.113 22.4322 125.841 23.0972C127.236 23.6692 128.469 24.5798 129.433 25.7486C130.463 26.9704 131 28.6061 131.043 30.6559C131.067 32.3229 130.56 33.9534 129.599 35.3075C128.638 36.6688 127.258 37.7379 125.46 38.5147C123.661 39.2915 121.572 39.6791 119.191 39.6776C116.632 39.6776 114.357 39.2357 112.364 38.3519Z" fill="#190B28"/>
<path d="M162.609 12.7033C164.637 14.95 165.651 18.0355 165.651 21.9599V39.2542H156.734V23.1809C156.734 21.2024 156.227 19.6643 155.214 18.5666C154.2 17.4688 152.837 16.9207 151.123 16.9223C149.409 16.9223 148.045 17.4704 147.032 18.5666C146.018 19.6628 145.512 21.2009 145.512 23.1809V39.2542H136.543V0H145.512V13.6336C146.467 12.2851 147.749 11.2072 149.235 10.5032C150.886 9.71035 152.696 9.31246 154.524 9.34027C157.886 9.33717 160.581 10.4582 162.609 12.7033Z" fill="#190B28"/>
<path d="M171.814 16.392C172.949 14.0926 174.495 12.3243 176.455 11.087C178.419 9.8458 180.694 9.2001 183.011 9.22636C185.073 9.22636 186.882 9.65042 188.44 10.4985C189.91 11.2686 191.151 12.4225 192.032 13.8407V9.6543H201V39.2543H192.032V35.0679C191.121 36.4804 189.866 37.6315 188.387 38.41C186.831 39.2597 185.021 39.6838 182.958 39.6822C180.655 39.7043 178.396 39.0499 176.455 37.7984C174.495 36.5456 172.949 34.7625 171.814 32.4491C170.68 30.1358 170.111 27.4573 170.108 24.4136C170.108 21.3637 170.677 18.6899 171.814 16.392ZM190.169 19.0969C189.583 18.4786 188.88 17.986 188.102 17.6486C187.323 17.3113 186.486 17.1361 185.639 17.1335C184.792 17.1309 183.954 17.3009 183.173 17.6335C182.393 17.966 181.687 18.4543 181.097 19.069C179.856 20.3621 179.235 22.1398 179.235 24.402C179.235 26.6642 179.856 28.4589 181.097 29.7861C181.679 30.4117 182.381 30.9107 183.16 31.2526C183.939 31.5945 184.779 31.772 185.628 31.7744C186.477 31.7768 187.318 31.604 188.098 31.2665C188.879 30.929 189.584 30.434 190.169 29.8117C191.411 28.5046 192.032 26.7215 192.032 24.4624C192.032 22.2033 191.411 20.4148 190.169 19.0969Z" fill="#190B28"/>
<path d="M93.9029 33.4375H84.8289V39.6799H93.9029V33.4375Z" fill="url(#paint0_linear_1219_3497)"/>
<defs>
<linearGradient id="paint0_linear_1219_3497" x1="84.8289" y1="36.5563" x2="93.9029" y2="36.5563" gradientUnits="userSpaceOnUse">
<stop stop-color="#D5573B"/>
<stop offset="1" stop-color="#D5893B"/>
</linearGradient>
</defs>
</svg>
